<svg width="400" height="399" xmlns="http://www.w3.org/2000/svg">
 <!-- Created with Method Draw - http://github.com/duopixel/Method-Draw/ -->

 <g>
  <title>background</title>
  <rect fill="none" id="canvas_background" height="401" width="402" y="-1" x="-1"/>
  <g display="none" overflow="visible" y="0" x="0" height="100%" width="100%" id="canvasGrid">
   <rect fill="url(#gridpattern)" stroke-width="0" y="1" x="1" height="400" width="401"/>
  </g>
 </g>
 <g>
  <title>Layer 1</title>
  <g stroke="null" id="svg_6">
   <path stroke="null" id="svg_5" d="m199.763667,123.674969c-42.539363,0 -77.043512,34.50415 -77.043512,77.043512c0,34.03149 22.215,62.863725 52.465214,73.262236c3.781277,0.47266 5.199255,-1.890638 5.199255,-3.781277c0,-1.890638 0,-6.617234 0,-13.234468c-21.269681,4.726596 -25.996277,-10.398511 -25.996277,-10.398511c-3.308617,-8.980532 -8.507873,-11.34383 -8.507873,-11.34383c-7.089894,-4.726596 0.47266,-4.726596 0.47266,-4.726596c7.562553,0.47266 11.81649,8.035213 11.81649,8.035213c7.089894,11.81649 17.961064,8.507873 22.215,6.617234c0.47266,-5.199255 2.835958,-8.507873 4.726596,-10.398511c-17.015745,-1.890638 -34.976809,-8.507873 -34.976809,-38.285426c0,-8.507873 2.835958,-15.125107 8.035213,-20.797022c-0.945319,-1.890638 -3.308617,-9.925851 0.945319,-20.324362c0,0 6.617234,-1.890638 21.269681,8.035213c6.144575,-1.890638 12.761809,-2.363298 19.379043,-2.363298c6.617234,0 13.234468,0.945319 19.379043,2.363298c14.652447,-9.925851 21.269681,-8.035213 21.269681,-8.035213c4.253936,10.398511 1.417979,18.433724 0.945319,20.324362c4.726596,5.199255 8.035213,12.289149 8.035213,20.797022c0,29.777554 -17.961064,35.922128 -34.976809,37.812767c2.835958,2.363298 5.199255,7.089894 5.199255,14.179788c0,10.398511 0,18.433724 0,21.269681c0,1.890638 1.417979,4.253936 5.199255,3.781277c30.722873,-10.398511 52.465214,-39.230746 52.465214,-73.262236c-0.47266,-42.066703 -34.976809,-76.570853 -77.516172,-76.570853z" fill="#191717" clip-rule="evenodd" fill-rule="evenodd"/>
  </g>
  <text xml:space="preserve" text-anchor="start" font-family="'Trebuchet MS', Gadget, sans-serif" font-size="84" id="svg_7" y="79.230774" x="3.46154" stroke-width="0" stroke="#000" fill="#000000">Linus</text>
  <text font-style="normal" font-weight="normal" xml:space="preserve" text-anchor="start" font-family="'Trebuchet MS', Gadget, sans-serif" font-size="84" id="svg_8" y="376.153854" x="185.076923" stroke-width="0" stroke="#000" fill="#000000">Skola</text>
  <text xml:space="preserve" text-anchor="start" font-family="'Trebuchet MS', Gadget, sans-serif" font-size="52" id="svg_9" y="217" x="169.085938" stroke-width="0" stroke="#000" fill="#000000">.io</text>
 </g>
</svg>